<?xml version="1.0" encoding="UTF-8" standalone="no"?>
<!-- Created with Inkscape (http://www.inkscape.org/) -->

<svg
   xmlns:dc="http://purl.org/dc/elements/1.1/"
   xmlns:cc="http://creativecommons.org/ns#"
   xmlns:rdf="http://www.w3.org/1999/02/22-rdf-syntax-ns#"
   xmlns:svg="http://www.w3.org/2000/svg"
   xmlns="http://www.w3.org/2000/svg"
   xmlns:sodipodi="http://sodipodi.sourceforge.net/DTD/sodipodi-0.dtd"
   xmlns:inkscape="http://www.inkscape.org/namespaces/inkscape"
   width="9.1999998cm"
   height="3.3cm"
   viewBox="0 0 91.999998 32.999999"
   version="1.1"
   id="svg8"
   inkscape:version="0.92.2 (5c3e80d, 2017-08-06)"
   sodipodi:docname="faceplate 2.svg">
  <defs
     id="defs2" />
  <sodipodi:namedview
     id="base"
     pagecolor="#ffffff"
     bordercolor="#666666"
     borderopacity="1.0"
     inkscape:pageopacity="0.0"
     inkscape:pageshadow="2"
     inkscape:zoom="1.979899"
     inkscape:cx="225.01822"
     inkscape:cy="86.16275"
     inkscape:document-units="mm"
     inkscape:current-layer="layer1"
     showgrid="false"
     units="cm"
     inkscape:window-width="1920"
     inkscape:window-height="1027"
     inkscape:window-x="0"
     inkscape:window-y="0"
     inkscape:window-maximized="1" />
  <metadata
     id="metadata5">
    <rdf:RDF>
      <cc:Work
         rdf:about="">
        <dc:format>image/svg+xml</dc:format>
        <dc:type
           rdf:resource="http://purl.org/dc/dcmitype/StillImage" />
        <dc:title></dc:title>
      </cc:Work>
    </rdf:RDF>
  </metadata>
  <g
     inkscape:label="Layer 1"
     inkscape:groupmode="layer"
     id="layer1"
     transform="translate(0,-264.00002)">
    <text
       xml:space="preserve"
       style="font-style:normal;font-variant:normal;font-weight:normal;font-stretch:normal;font-size:5.46288061px;line-height:1.25;font-family:'M3 Mono';-inkscape-font-specification:'M3 Mono';letter-spacing:0px;word-spacing:0px;fill:#000000;fill-opacity:1;stroke:none;stroke-width:0.13657202"
       x="47.313549"
       y="270.94635"
       id="text817"><tspan
         sodipodi:role="line"
         id="tspan815"
         x="47.313549"
         y="270.94635"
         style="stroke-width:0.13657202">Open Data</tspan><tspan
         sodipodi:role="line"
         x="47.313549"
         y="277.77496"
         style="font-weight:bold;stroke-width:0.13657202"
         id="tspan819">Student Award</tspan><tspan
         sodipodi:role="line"
         x="47.313549"
         y="284.60355"
         style="font-weight:normal;stroke-width:0.13657202"
         id="tspan821">2018</tspan></text>
    <g
       transform="matrix(0.09226767,0,0,-0.09226767,3.8156369,285.68094)"
       inkscape:label="ink_ext_XXXXXX"
       id="g906">
      <g
         transform="scale(0.1)"
         id="g908">
        <path
           inkscape:connector-curvature="0"
           id="path910"
           style="fill:#100f0d;fill-opacity:1;fill-rule:nonzero;stroke:none"
           d="m 4072.5,1070.9 c 0,-500.08 -405.39,-905.478 -905.47,-905.478 -500.08,0 -905.49,405.398 -905.49,905.478 0,500.08 405.41,905.48 905.49,905.48 500.08,0 905.47,-405.4 905.47,-905.48" />
        <path
           inkscape:connector-curvature="0"
           id="path912"
           style="fill:#ffffff;fill-opacity:1;fill-rule:nonzero;stroke:none"
           d="m 2772.54,1502.55 c -3.79,-31.05 -3.79,-82.58 0,-113.64 3.03,-21.97 19.69,-42.81 49.26,-42.81 25.37,0 45.08,15.54 49.24,42.81 4.16,31.06 4.16,82.59 0,113.64 -3.03,22.37 -19.32,42.44 -49.24,42.82 -24.63,0 -45.84,-15.15 -49.26,-42.82 z m 49.26,78.81 c 45.45,0 79.16,-29.93 85.21,-78.81 3.79,-30.3 3.42,-83.34 0,-113.64 -4.53,-41.67 -35.21,-78.8 -85.21,-78.8 -45.47,0 -79.18,29.93 -85.26,78.8 -3.79,30.68 -3.79,83.34 0,113.64 4.92,41.31 35.24,78.81 85.26,78.81" />
        <path
           inkscape:connector-curvature="0"
           id="path914"
           style="fill:#ffffff;fill-opacity:1;fill-rule:nonzero;stroke:none"
           d="m 3015.02,1434.38 c -1.13,-15.54 -1.13,-37.51 0,-53.05 1.52,-20.08 15.7,-37.88 41.84,-37.88 26.15,0 40.31,17.8 41.83,37.88 1.13,15.54 1.13,37.51 0,53.05 -1.52,20.07 -15.68,37.87 -41.83,37.87 -26.14,0 -40.32,-17.8 -41.84,-37.87 z m 115.88,0 c 1.13,-15.17 1.13,-37.9 0,-53.05 -3.05,-39.78 -30.47,-71.98 -70.26,-71.98 -17.42,0 -25.91,9.47 -33.49,9.47 -5.69,0 -8.34,-2.27 -8.34,-9.47 v -64.4 c 0,-4.17 -3.4,-7.57 -7.58,-7.57 h -18.93 c -4.17,0 -7.57,3.4 -7.57,7.57 v 250.03 c 0,4.17 3.4,7.57 7.57,7.57 h 12.88 c 2.28,0 3.78,-1.12 5.31,-2.64 2.26,-2.66 5.68,-6.06 9.47,-6.06 10.98,0 12.66,12.5 40.68,12.5 39.79,0 67.21,-32.21 70.26,-71.97" />
        <path
           inkscape:connector-curvature="0"
           id="path916"
           style="fill:#ffffff;fill-opacity:1;fill-rule:nonzero;stroke:none"
           d="m 3246.04,1427.17 h 78.78 c 2.27,0 3.79,1.52 3.79,3.79 0,26.14 -19.31,41.29 -42.81,41.29 -26.13,0 -43.55,-18.18 -43.55,-41.29 0,-2.27 1.5,-3.79 3.79,-3.79 z m 39.39,-83.72 c 19.69,0 34.47,9.85 39.02,23.86 1.53,4.92 5.3,6.44 8.71,6.44 h 19.32 c 3.79,0 7.21,-2.27 6.45,-7.57 -4.55,-32.96 -34.11,-56.83 -73.5,-56.83 -45.47,0 -74.63,32.2 -77.66,71.98 -1.15,15.15 -1.15,37.88 0,53.05 3.03,39.76 32.19,71.97 77.66,71.97 42.42,0 75.76,-34.1 75.76,-75.77 v -26.13 c -0.37,-4.18 -3.4,-7.58 -7.58,-7.58 h -108.34 c -2.26,0 -3.79,-1.53 -3.79,-3.8 0,-34.46 17.8,-49.62 43.95,-49.62" />
        <path
           inkscape:connector-curvature="0"
           id="path918"
           style="fill:#ffffff;fill-opacity:1;fill-rule:nonzero;stroke:none"
           d="m 3475.2,1320.72 c 0,-4.17 -3.4,-7.58 -7.56,-7.58 h -18.95 c -4.18,0 -7.58,3.41 -7.58,7.58 v 174.26 c 0,4.17 3.4,7.57 7.58,7.57 h 16.66 c 2.29,0 3.79,-1.12 5.31,-2.64 2.27,-2.66 5.67,-6.06 9.46,-6.06 10.99,0 14.02,12.5 40.54,12.5 39.79,0 71.98,-30.31 71.98,-71.97 v -113.66 c 0,-4.17 -3.4,-7.58 -7.56,-7.58 h -18.95 c -4.18,0 -7.58,3.41 -7.58,7.58 v 113.66 c 0,21.96 -18.18,37.87 -41.67,37.87 -23.5,0 -41.68,-14.02 -41.68,-35.99 v -115.54" />
        <path
           inkscape:connector-curvature="0"
           id="path920"
           style="fill:#ffffff;fill-opacity:1;fill-rule:nonzero;stroke:none"
           d="m 2824.06,970.328 c 23.11,0 40.9,20.844 43.58,43.562 3.77,30.31 3.77,75.77 0,106.07 -2.68,22.74 -20.47,43.58 -43.58,43.58 h -39.78 c -2.27,0 -3.79,-1.52 -3.79,-3.79 V 974.109 c 0,-2.269 1.52,-3.781 3.79,-3.781 1.52,0 39.78,0 39.78,0 z m -79.57,-28.406 v 250.028 c 0,4.17 3.42,7.57 7.58,7.57 h 71.99 c 43.95,0 74.26,-35.61 79.55,-79.56 3.79,-30.3 3.4,-75.76 0,-106.07 -4.92,-43.562 -35.6,-79.55 -79.55,-79.55 h -71.99 c -4.16,0 -7.58,3.41 -7.58,7.582" />
        <path
           inkscape:connector-curvature="0"
           id="path922"
           style="fill:#ffffff;fill-opacity:1;fill-rule:nonzero;stroke:none"
           d="m 3043.01,1017.68 c -19.32,0 -28.42,-10.23 -28.42,-26.141 0,-18.559 11.74,-29.539 33.71,-29.539 34.86,0 47.74,14.012 47.74,39.77 v 12.12 c 0,2.28 -1.51,3.79 -3.79,3.79 z m -20.47,55.69 c 0,-6.44 -5.29,-6.44 -8.71,-6.44 h -17.05 c -5.69,0 -7.58,3.03 -7.58,7.58 0,35.23 36.37,53.03 68.57,53.03 37.13,0 69.34,-26.13 69.34,-68.19 V 941.922 c 0,-4.172 -3.42,-7.582 -7.58,-7.582 h -12.89 c -2.26,0 -3.79,0.762 -5.29,2.648 -2.29,3.032 -3.79,7.961 -7.58,7.961 -6.82,0 -16.29,-14.398 -44.34,-14.398 -46.58,0 -68.94,28.41 -68.94,60.621 0,31.438 22.73,57.578 62.52,57.578 h 46.21 c 2.28,0 3.79,1.51 3.79,3.79 v 12.49 c 0,20.46 -15.9,29.93 -35.24,29.93 -12.5,0 -35.23,-3.4 -35.23,-21.59" />
        <path
           inkscape:connector-curvature="0"
           id="path924"
           style="fill:#ffffff;fill-opacity:1;fill-rule:nonzero;stroke:none"
           d="m 3285.8,1087.76 c -2.26,0 -3.79,-1.51 -3.79,-3.78 v -92.808 c 0,-13.641 11,-26.524 26.53,-26.524 15.52,0 26.52,12.883 26.52,26.524 0,4.156 3.4,7.558 7.58,7.558 h 18.94 c 4.16,0 7.56,-3.402 7.56,-7.558 0,-33.344 -27.26,-60.621 -60.6,-60.621 -33.34,0 -60.61,27.277 -60.61,60.621 v 92.808 c 0,2.27 -1.52,3.78 -3.79,3.78 h -37.89 c -4.16,0 -7.58,3.42 -7.58,7.59 v 18.94 c 0,4.16 3.42,7.57 7.58,7.57 h 37.89 c 2.27,0 3.79,1.52 3.79,3.79 v 58.73 c 0,4.16 3.4,7.57 7.58,7.57 h 18.92 c 4.18,0 7.58,-3.41 7.58,-7.57 v -58.73 c 0,-2.27 1.53,-3.79 3.79,-3.79 h 60.63 c 4.16,0 7.57,-3.41 7.57,-7.57 v -18.94 c 0,-4.17 -3.41,-7.59 -7.57,-7.59 h -60.63" />
        <path
           inkscape:connector-curvature="0"
           id="path926"
           style="fill:#ffffff;fill-opacity:1;fill-rule:nonzero;stroke:none"
           d="m 3505.14,1017.68 c -19.32,0 -28.42,-10.23 -28.42,-26.141 0,-18.559 11.74,-29.539 33.71,-29.539 34.86,0 47.73,14.012 47.73,39.77 v 12.12 c 0,2.28 -1.5,3.79 -3.78,3.79 z m -20.47,55.69 c 0,-6.44 -5.29,-6.44 -8.71,-6.44 h -17.05 c -5.69,0 -7.58,3.03 -7.58,7.58 0,35.23 36.37,53.03 68.57,53.03 37.13,0 69.34,-26.13 69.34,-68.19 V 941.922 c 0,-4.172 -3.42,-7.582 -7.58,-7.582 h -12.89 c -2.27,0 -3.79,0.762 -5.29,2.648 -2.29,3.032 -3.79,7.961 -7.58,7.961 -6.82,0 -16.29,-14.398 -44.34,-14.398 -46.58,0 -68.94,28.41 -68.94,60.621 0,31.438 22.73,57.578 62.52,57.578 h 46.21 c 2.26,0 3.79,1.51 3.79,3.79 v 12.49 c 0,20.46 -15.9,29.93 -35.24,29.93 -12.5,0 -35.23,-3.4 -35.23,-21.59" />
        <path
           inkscape:connector-curvature="0"
           id="path928"
           style="fill:#ffffff;fill-opacity:1;fill-rule:nonzero;stroke:none"
           d="m 3077.11,568.328 c 0,-4.168 -3.42,-7.566 -7.58,-7.566 h -34.1 c -4.16,0 -7.58,3.398 -7.58,7.566 v 34.102 c 0,4.16 3.42,7.57 7.58,7.57 h 34.1 c 4.16,0 7.58,-3.41 7.58,-7.57 v -34.102" />
        <path
           inkscape:connector-curvature="0"
           id="path930"
           style="fill:#ffffff;fill-opacity:1;fill-rule:nonzero;stroke:none"
           d="m 3285.8,556.961 c -45.45,0 -72.73,32.199 -75.76,71.98 -1.13,15.161 -1.13,37.887 0,53.039 3.03,39.782 30.31,71.981 75.76,71.981 42.44,0 73.13,-27.66 73.13,-64.402 0,-4.168 -2.27,-7.579 -6.45,-7.579 h -20.45 c -3.42,0 -7.21,1.891 -7.21,6.071 0,17.801 -15.52,31.82 -39.02,31.82 -26.13,0 -40.16,-17.812 -41.66,-37.891 -1.13,-15.531 -1.13,-37.5 0,-53.039 1.5,-20.07 15.53,-37.882 41.66,-37.882 23.11,0 38.65,13.632 38.65,31.441 0,4.93 3.79,6.441 7.19,6.441 h 19.71 c 4.16,0 7.58,-3.41 7.58,-7.57 0,-36.75 -30.69,-64.41 -73.13,-64.41" />
        <path
           inkscape:connector-curvature="0"
           id="path932"
           style="fill:#ffffff;fill-opacity:1;fill-rule:nonzero;stroke:none"
           d="m 3451.72,560.762 c -4.18,0 -7.58,3.398 -7.58,7.566 v 252.684 c 0,4.168 3.4,7.578 7.58,7.578 h 18.94 c 4.16,0 7.58,-3.41 7.58,-7.578 v -68.563 c 0,-3.41 3.03,-7.961 8.32,-7.961 7.58,0 17.44,9.473 34.87,9.473 39.76,0 71.97,-32.199 71.97,-71.981 V 568.328 c 0,-4.168 -3.42,-7.566 -7.58,-7.566 h -18.94 c -4.17,0 -7.58,3.398 -7.58,7.566 V 681.98 c 0,19.7 -17.03,37.891 -40.53,37.891 -23.5,0 -40.53,-16.289 -40.53,-36 V 568.328 c 0,-4.168 -3.42,-7.566 -7.58,-7.566 h -18.94" />
        <path
           inkscape:connector-curvature="0"
           id="path934"
           style="fill:#100f0d;fill-opacity:1;fill-rule:nonzero;stroke:none"
           d="m 2006.21,1063 c 0,504.45 -408.92,913.38 -913.38,913.38 -504.432,0 -913.377,-408.93 -913.377,-913.38 0,-504.441 408.945,-913.379 913.377,-913.379 504.46,0 913.38,408.938 913.38,913.379" />
        <path
           inkscape:connector-curvature="0"
           id="path936"
           style="fill:#ffffff;fill-opacity:1;fill-rule:nonzero;stroke:none"
           d="M 823.75,591.191 C 815.234,577.012 806.738,569.91 793.965,569.91 h -24.121 c -18.438,0 -34.043,19.86 -22.696,39.731 l 605.532,932.109 c 8.49,14.19 18.43,21.29 31.19,21.29 h 21.29 c 18.45,0 32.63,-19.87 22.71,-39.73 L 823.75,591.191" />
        <path
           inkscape:connector-curvature="0"
           id="path938"
           style="fill:#ffffff;fill-opacity:1;fill-rule:nonzero;stroke:none"
           d="m 1373.09,669.82 c 37.91,0 67.14,32.469 71.48,69.77 6.23,49.75 6.23,93.07 0,142.808 -4.34,37.313 -33.57,66.301 -71.48,66.301 h -70.53 c -3.73,0 -6.21,-2.488 -6.21,-6.219 V 676.039 c 0,-3.73 2.48,-6.219 6.21,-6.219 2.48,0 70.53,0 70.53,0 z m -149.71,-58.808 v 396.498 c 0,6.84 5.58,12.43 12.44,12.43 h 151.15 c 72.11,0 121.86,-53.229 130.57,-125.37 6.23,-49.738 5.6,-117.398 0,-167.148 -8.09,-71.5 -58.46,-128.84 -130.57,-128.84 h -151.15 c -6.86,0 -12.44,5.598 -12.44,12.43" />
        <path
           inkscape:connector-curvature="0"
           id="path940"
           style="fill:#ffffff;fill-opacity:1;fill-rule:nonzero;stroke:none"
           d="m 901.855,1228.76 c -5.683,-39.72 -35.468,-72.35 -79.453,-72.35 -51.074,0 -73.789,39.73 -79.453,72.35 -7.09,43.99 -7.09,99.32 0,146.13 5.664,38.32 35.469,69.53 79.453,69.53 51.075,0 75.196,-39.73 79.453,-69.53 7.09,-46.81 7.09,-102.14 0,-146.13 z m 79.454,143.3 c -11.348,90.8 -73.789,148.97 -158.907,148.97 -93.632,0 -150.39,-72.35 -160.332,-148.97 -7.07,-56.75 -7.07,-85.12 0,-141.88 11.368,-92.21 75.196,-148.97 160.332,-148.97 93.633,0 150.391,70.94 158.907,148.97 7.089,56.76 7.089,85.13 0,141.88" />
      </g>
    </g>
    <text
       id="text966"
       y="289.63315"
       x="4.8911705"
       style="font-style:normal;font-variant:normal;font-weight:normal;font-stretch:normal;font-size:2.75985551px;line-height:1.25;font-family:'M3 Mono';-inkscape-font-specification:'M3 Mono';letter-spacing:0px;word-spacing:0px;fill:#000000;fill-opacity:1;stroke:none;stroke-width:0.06899639"
       xml:space="preserve"><tspan
         style="font-weight:normal;line-height:1.5;stroke-width:0.06899639"
         y="289.63315"
         x="4.8911705"
         sodipodi:role="line"
         id="tspan994"><tspan
   style="font-weight:bold"
   id="tspan1006">Opendata.ch</tspan>   SBB CFF FFS   Netcetera     Swiss Post</tspan><tspan
         style="font-weight:normal;line-height:1.5;stroke-width:0.06899639"
         y="293.77292"
         x="4.8911705"
         sodipodi:role="line"
         id="tspan973"><tspan
   style="font-weight:bold"
   id="tspan1008">CH Open</tspan>       Swisscom      IBM Schweiz   my3Dworld</tspan></text>
    <flowRoot
       xml:space="preserve"
       id="flowRoot998"
       style="fill:black;fill-opacity:1;stroke:none;font-family:'M3 Mono';font-style:normal;font-weight:normal;font-size:40px;line-height:1.25;letter-spacing:0px;word-spacing:0px;-inkscape-font-specification:'M3 Mono';font-stretch:normal;font-variant:normal"><flowRegion
         id="flowRegion1000"><rect
           id="rect1002"
           width="352.54324"
           height="130.81476"
           x="-1.0101526"
           y="-2.5548098" /></flowRegion><flowPara
         id="flowPara1004"></flowPara></flowRoot>  </g>
</svg>
